# Blender v2.79 (sub 0) OBJ File: ''
# www.blender.org
mtllib mc_tfcr_barrel.mtl
o Cube
v -0.437500 0.437500 -0.500000
v 0.437500 0.437500 -0.500000
v 0.437500 -0.437500 -0.500000
v -0.437500 -0.437500 -0.500000
v -0.382812 0.382813 0.500000
v 0.382813 0.382812 0.500000
v 0.382812 -0.382813 0.500000
v -0.382812 -0.382812 0.500000
v -0.437500 0.437500 0.500000
v 0.437500 0.437500 0.500000
v -0.437500 -0.437500 0.500000
v 0.437500 -0.437500 0.500000
v -0.382812 0.382813 -0.437500
v 0.382813 0.382812 -0.437500
v -0.382812 -0.382812 -0.437500
v 0.382812 -0.382813 -0.437500
vt 0.468750 0.468750
vt 0.468750 0.031250
vt 0.031250 0.031250
vt 0.031250 0.468750
vt 0.937469 0.500000
vt 0.562531 0.500000
vt 0.562531 0.031250
vt 0.937469 0.031250
vt 0.468750 0.500000
vt 0.468750 1.000000
vt 0.031250 1.000000
vt 0.031250 0.500000
vt 0.468750 0.500000
vt 0.468750 1.000000
vt 0.031250 1.000000
vt 0.031250 0.500000
vt 0.031250 0.500000
vt 0.031250 1.000000
vt 0.468750 1.000000
vt 0.468750 0.500000
vt 0.468750 1.000000
vt 0.031250 0.500000
vt 0.031250 1.000000
vt 0.937910 0.937909
vt 0.937909 0.562090
vt 0.968459 0.531540
vt 0.968460 0.968459
vt 0.562090 0.937910
vt 0.531541 0.968459
vt 0.562090 0.562091
vt 0.531540 0.531541
vt 0.936597 0.936597
vt 0.563403 0.936597
vt 0.563403 0.563403
vt 0.936597 0.563403
vt 0.937469 0.500000
vt 0.562531 0.500000
vt 0.562531 0.031250
vt 0.937469 0.031250
vt 0.937500 0.500000
vt 0.937500 0.031250
vt 0.562531 0.500000
vt 0.562531 0.031250
vn 0.0000 0.0000 -1.0000
vn 0.0000 1.0000 0.0000
vn 1.0000 -0.0000 -0.0000
vn -0.0000 -1.0000 -0.0000
vn -1.0000 0.0000 0.0000
vn 0.0000 0.0000 1.0000
usemtl Material
s off
f 1/1/1 2/2/1 3/3/1 4/4/1
f 8/5/2 7/6/2 16/7/2 15/8/2
f 1/9/2 9/10/2 10/11/2 2/12/2
f 2/13/3 10/14/3 12/15/3 3/16/3
f 3/17/4 12/18/4 11/19/4 4/20/4
f 9/21/5 1/9/5 4/22/5 11/23/5
f 5/24/6 6/25/6 10/26/6 9/27/6
f 8/28/6 5/24/6 9/27/6 11/29/6
f 6/25/6 7/30/6 12/31/6 10/26/6
f 7/30/6 8/28/6 11/29/6 12/31/6
f 13/32/6 15/33/6 16/34/6 14/35/6
f 5/36/3 8/37/3 15/38/3 13/39/3
f 7/6/5 6/40/5 14/41/5 16/7/5
f 6/42/4 5/36/4 13/39/4 14/43/4
